<svg width="115" height="148" viewBox="0 0 115 148" fill="none" xmlns="http://www.w3.org/2000/svg">
<path d="M45.7753 135.529C41.1779 130.105 35.6627 125.513 32.7937 119.631C29.8758 113.648 24.9182 109.872 21.3011 104.804C17.263 99.1477 13.3994 93.3517 9.73507 87.4455C-5.77756 62.4424 -2.05672 37.8562 15.9674 17.6264C24.0003 8.61034 34.7404 2.86045 47.4934 0.859089C61.0144 -1.2628 73.504 0.43781 85.0882 7.17151C102.575 17.3361 112.017 32.8454 113.932 53.0503C115.527 69.881 108.062 83.7913 98.992 96.6109C88.3353 111.673 76.2421 125.719 64.7769 140.21C63.0519 142.39 61.6143 144.904 59.5268 146.643C58.5909 147.422 55.6861 147.34 54.8683 146.494C51.6603 143.177 48.9278 139.4 45.7753 135.529ZM48.8897 54.4109C49.9445 54.3562 50.9993 54.3015 52.3582 54.6919C53.2614 54.3197 54.1645 53.9475 55.6955 53.3818C56.1334 53.3826 56.5713 53.3834 56.9659 54.0037C56.9952 54.4166 57.0246 54.8296 56.5325 55.6654C50.9933 61.823 44.9905 67.6336 40.0477 74.2376C35.2914 80.5923 31.2324 87.5666 27.6564 94.6662C25.8399 98.2725 26.3978 102.7 28.1345 108.09C32.1875 98.2395 39.2876 94.7228 47.6347 93.7871C53.7136 93.1057 59.9264 93.4131 66.0718 93.5742C77.5791 93.876 86.2058 91.4041 87.5853 81.1276C75.6676 81.1276 63.634 81.1276 52.2783 81.1276C56.8757 76.314 61.7444 70.3826 67.4573 65.4239C76.7949 57.3191 82.5724 44.7618 97.4691 42.1019C90.7062 38.061 85.2386 33.9811 77.815 37.3507C76.0617 38.1465 74.1092 38.5035 72.0056 38.3689C70.9547 38.044 69.9038 37.7192 68.8529 37.3943C68.7031 37.7896 68.5534 38.1849 68.4037 38.5802C69.4714 39.1555 70.5391 39.7309 71.5964 41.1134C72.0217 43.1372 72.447 45.161 72.4892 47.4825C72.2277 47.7088 72.0948 47.9949 71.3562 48.4101C70.6728 47.9833 69.6697 47.7201 69.3547 47.1047C65.4246 39.4271 58.4267 38.3299 50.8974 38.3949C40.8506 38.4817 30.9552 37.867 21.5315 32.6445C21.5559 34.5817 21.631 36.5374 22.6045 37.8014C27.9619 44.7581 35.1286 48.0945 44.2002 47.1901C44.1269 47.6709 44.0536 48.1517 43.9803 48.6325C37.3992 48.6325 30.8181 48.6325 24.1094 48.6325C29.9817 56.2497 37.8896 55.9929 46.2121 55.5545C46.8452 55.2236 47.4783 54.8927 48.8897 54.4109Z" fill="#5F1627"/>
</svg>
