<svg width="366" height="147" viewBox="0 0 366 147" fill="none" xmlns="http://www.w3.org/2000/svg">
<g clip-path="url(#clip0_1_41)">
<path d="M45.728 135.311C41.1306 129.888 35.6154 125.296 32.7464 119.413C29.8285 113.43 24.8709 109.654 21.2538 104.587C17.2157 98.9302 13.3521 93.1342 9.68777 87.228C-5.82486 62.2249 -2.10402 37.6387 15.92 17.4089C23.953 8.39286 34.6931 2.64296 47.4461 0.641606C60.9671 -1.48028 73.4567 0.220326 85.0409 6.95403C102.527 17.1186 111.97 32.6279 113.885 52.8328C115.48 69.6635 108.015 83.5739 98.9447 96.3934C88.288 111.456 76.1948 125.502 64.7296 139.992C63.0046 142.173 61.567 144.686 59.4795 146.425C58.5436 147.205 55.6388 147.122 54.821 146.276C51.613 142.959 48.8805 139.182 45.728 135.311ZM48.8424 54.1934C49.8972 54.1387 50.952 54.084 52.3109 54.4744C53.2141 54.1022 54.1172 53.73 55.6482 53.1643C56.0861 53.1651 56.524 53.1659 56.9186 53.7862C56.9479 54.1991 56.9773 54.6121 56.4852 55.4479C50.946 61.6055 44.9432 67.4161 40.0004 74.0201C35.2441 80.3748 31.1851 87.3491 27.6091 94.4487C25.7926 98.055 26.3505 102.482 28.0872 107.873C32.1402 98.022 39.2403 94.5053 47.5873 93.5696C53.6663 92.8882 59.8791 93.1956 66.0245 93.3567C77.5318 93.6585 86.1585 91.1866 87.538 80.9101C75.6203 80.9101 63.5867 80.9101 52.231 80.9101C56.8284 76.0965 61.6971 70.1651 67.41 65.2064C76.7476 57.1016 82.5251 44.5443 97.4218 41.8844C90.6589 37.8436 85.1913 33.7636 77.7677 37.1332C76.0144 37.9291 74.0619 38.286 71.9583 38.1514C70.9074 37.8265 69.8565 37.5017 68.8056 37.1768C68.6558 37.5721 68.5061 37.9674 68.3564 38.3627C69.4241 38.938 70.4918 39.5134 71.5491 40.8959C71.9744 42.9197 72.3997 44.9435 72.4419 47.265C72.1804 47.4913 72.0475 47.7774 71.3089 48.1926C70.6255 47.7658 69.6224 47.5026 69.3074 46.8872C65.3773 39.2096 58.3794 38.1124 50.8501 38.1774C40.8033 38.2642 30.9079 37.6495 21.4842 32.427C21.5086 34.3642 21.5837 36.32 22.5571 37.5839C27.9146 44.5406 35.0813 47.877 44.1529 46.9726C44.0796 47.4534 44.0063 47.9342 43.933 48.415C37.3519 48.415 30.7708 48.415 24.0621 48.415C29.9344 56.0323 37.8423 55.7754 46.1648 55.337C46.7979 55.0061 47.431 54.6752 48.8424 54.1934Z" fill="#B89E71"/>
<path d="M197.917 106.223C198.562 109.56 196.807 109.924 194.543 109.92C180.395 109.897 166.246 109.917 152.097 109.909C147.637 109.906 144.024 108.491 142.048 104.087C140.156 99.872 141.522 96.3492 144.193 93.1121C153.309 82.0631 162.481 71.0595 171.596 60.0089C172.531 58.8746 173.226 57.5415 174.438 55.6769C170.118 55.6769 166.231 55.4469 162.38 55.7219C152.519 56.4263 146.862 53.7036 143.33 46.2177C141.168 41.6346 142.675 39.0329 147.309 39.1241C160.606 39.3857 173.905 39.7506 187.201 39.6938C191.558 39.6752 194.735 41.2266 196.767 44.686C199.012 48.5088 198.172 52.5919 195.529 55.877C187.051 66.4154 178.339 76.7658 169.748 87.2137C168.203 89.0928 166.801 91.0902 164.405 94.2624C171.904 94.2624 178.241 94.2145 184.578 94.2755C191.212 94.3395 196.865 99.2958 197.917 106.223Z" fill="#B89E71"/>
<path d="M239.412 83.3591C238.196 74.9546 232.748 70.7491 225.699 72.2701C219.625 73.5806 216.109 80.5271 217.88 87.7153C219.864 95.7681 224.706 97.2025 238.095 93.2259C237.768 98.1797 237.626 102.88 237.022 107.52C236.89 108.54 235.266 109.821 234.085 110.182C218.796 114.858 202.268 104.172 200.908 87.9884C199.418 70.2585 209.91 58.5376 228.789 56.3612C240.476 55.0138 254.336 66.9328 256.136 79.4679C256.487 81.9141 256.766 84.3926 256.794 86.8594C256.88 94.3349 256.825 101.812 256.825 109.156C247.417 112.396 239.943 103.887 239.501 95.243C239.307 91.4408 239.391 87.6244 239.412 83.3591Z" fill="#B89E71"/>
<path d="M294.323 61.7585C295.779 62.7463 297.572 63.6568 297.674 64.7287C298.034 68.5032 297.814 72.3331 297.814 76.6573C293.481 76.6573 289.423 76.6573 284.818 76.6573C284.818 86.2691 284.65 95.3751 284.895 104.47C285.003 108.506 283.959 110.394 279.59 109.983C276.145 109.659 272.646 109.917 268.265 109.917C268.265 106.337 268.265 102.941 268.265 99.5451C268.264 94.8826 268.124 90.2148 268.3 85.559C268.473 80.9996 268.574 76.7801 263.403 74.4473C261.966 73.799 260.867 71.7964 260.191 70.1742C257.632 64.028 258.892 62.1222 265.426 61.6948C266.223 61.6428 267.009 61.4381 268.075 61.2577C268.108 53.7702 269.951 47.0371 275.973 42.3043C282.573 37.1174 290.073 36.3761 297.97 38.6713C300.399 39.3771 301.466 40.9158 300.574 43.5401C299.884 45.5706 299.248 47.6371 298.824 49.7354C298.328 52.1925 297.483 52.7936 294.724 52.2258C288.205 50.8837 284.781 54.2956 285.209 61.7553C288.057 61.7553 290.971 61.7553 294.323 61.7585Z" fill="#B89E71"/>
<path d="M357.451 57.1767C366.774 59.8319 366.784 59.8348 364.199 68.484C363.683 70.209 363.06 71.9019 362.389 73.9002C359.462 73.3208 356.647 72.5375 353.782 72.248C349.188 71.7838 346.288 74.1874 346.07 78.6647C345.641 87.4472 345.422 96.2616 345.688 105.045C345.794 108.533 345.184 109.879 341.583 110.004C328.979 110.443 328.877 110.528 328.81 98.095C328.774 91.4996 329.304 84.9028 329.357 78.3048C329.454 66.2582 339.439 56.4197 353.019 57.1151C354.347 57.1831 355.681 57.1442 357.451 57.1767Z" fill="#B89E71"/>
<path d="M305.294 81.9984C305.292 74.8807 305.292 68.2626 305.292 61.7762C312.718 59.4284 321.748 67.4085 321.892 74.9514C322.109 86.392 321.949 97.8397 321.949 109.15C313.097 111.82 305.81 106.572 305.379 97.4584C305.144 92.4814 305.311 87.4854 305.294 81.9984Z" fill="#B89E71"/>
<path d="M304.448 42.6587C307.977 39.0521 311.061 36.0775 316.523 38.632C321.769 41.0861 323.485 43.2813 322.742 49.2815C322.265 53.1389 318.235 56.5515 313.687 56.9504C309.346 57.331 305.233 54.5699 304.199 50.0157C303.689 47.768 304.157 45.2985 304.448 42.6587Z" fill="#B89E71"/>
<path d="M72.0797 38.4981C72.1585 39.1676 72.0644 39.4745 71.7391 39.9272C70.4918 39.5134 69.4241 38.938 68.3564 38.3627C68.5061 37.9674 68.6559 37.5721 68.8056 37.1768C69.8565 37.5017 70.9074 37.8265 72.0797 38.4981Z" fill="#B89E71"/>
<path d="M52.1588 54.2518C52.7855 53.73 53.5643 53.4306 54.6817 53.2446C54.1172 53.73 53.2141 54.1022 52.1588 54.2518Z" fill="#B89E71"/>
<path d="M46.0585 55.0734C46.4617 54.5846 46.9711 54.3595 47.7723 54.2393C47.431 54.6752 46.7979 55.0061 46.0585 55.0734Z" fill="#B89E71"/>
<path d="M56.9403 53.4764C57.3033 53.1716 57.6446 53.1765 57.9859 53.1815C57.9033 53.7255 57.8207 54.2695 57.3723 54.9193C56.9773 54.6121 56.948 54.1991 56.9403 53.4764Z" fill="#B89E71"/>
<path d="M72.6334 47.1161C72.7731 47.3563 72.7212 47.7454 72.3561 48.1288C72.0475 47.7774 72.1804 47.4913 72.6334 47.1161Z" fill="#B89E71"/>
</g>
<defs>
<clipPath id="clip0_1_41">
<rect width="366" height="147" fill="white"/>
</clipPath>
</defs>
</svg>
